<?xml version="1.0" encoding="utf-8"?>
<!-- Generator: Adobe Illustrator 27.5.0, SVG Export Plug-In . SVG Version: 6.00 Build 0)  -->
<svg version="1.1" xmlns="http://www.w3.org/2000/svg" xmlns:xlink="http://www.w3.org/1999/xlink" x="0px" y="0px"
	 viewBox="0 0 500 500" style="enable-background:new 0 0 500 500;" xml:space="preserve">
<g id="BACKGROUND">
 <rect x="0" y="0" width="400" height="400" stroke="transparent" stroke-width="1" fill="" fill-opacity="0" />
</g>
<g id="OBJECTS">
	<g>
		<g>
			<path style="fill:#6FA843;" d="M93.571,400.592c-3.398-2.213-6.741-4.832-8.497-8.488c-1.756-3.655-1.456-8.575,1.663-11.167
				c3.181-2.644,7.832-2.044,11.946-1.609c4.114,0.435,9.046,0.178,11.292-3.296c2.387-3.691,0.126-8.702-3.012-11.78
				c-3.138-3.078-7.185-5.346-9.446-9.115c-2.774-4.624-2.038-11.071,1.708-14.949c3.745-3.879,10.163-4.84,14.881-2.229
				c4.924,2.725,7.353,8.325,10.854,12.731c3.501,4.406,10.076,7.806,14.556,4.401c2.881-2.189,3.506-6.198,5.319-9.328
				c3.114-5.376,10.385-7.899,16.16-5.607s9.338,9.113,7.918,15.162c-1.395,5.947-6.882,11.728-4.271,17.25
				c1.651,3.493,5.845,4.865,8.663,7.508c5.23,4.907,4.772,13.89,0.505,19.653c-7.983,10.781-25.637,13.532-38.071,13.426
				C120.882,413.031,106.035,408.71,93.571,400.592z"/>
			<g>
				<path style="fill:#3FBC56;" d="M128.901,345.385c-9.2-13.155-22.392-28.863-37.597-35.139c-0.763-0.315-1.703,0.719-1.04,1.374
					c5.682,5.613,12.417,10.11,18.258,15.577c6.348,5.941,12.12,12.466,17.3,19.446c10.385,13.992,17.453,29.595,22.801,46.099
					c0.226,0.699,1.398,0.373,1.25-0.349C146.417,375.486,138.759,359.481,128.901,345.385z"/>
				<path style="fill:#EBEF3C;" d="M84.668,301.843c-1.387-0.692-4.01-1.249-4.787,0.618c-0.663,1.592,1.293,2.737,2.467,3.243
					c1.46,0.629,2.795,1.679,4.447,1.623c0.881-0.03,1.38-0.987,1.327-1.754C87.997,303.741,86.14,302.578,84.668,301.843z"/>
				<path style="fill:#EBEF3C;" d="M89.066,313.485c-2.166-0.815-4.482-1.882-6.836-1.771c-0.94,0.044-1.539,1.431-0.854,2.118
					c1.595,1.6,3.83,2.352,5.89,3.186c1.308,0.529,4.295,1.956,5.126-0.094C93.186,314.964,90.35,313.969,89.066,313.485z"/>
				<path style="fill:#EBEF3C;" d="M98.988,321.835c-0.932-1.707-2.695-1.597-4.459-1.671c-2.102-0.088-4.13,0.026-6.221,0.21
					c-1.589,0.14-1.382,2.341,0.008,2.647c2.03,0.447,3.99,0.818,6.069,0.989c1.601,0.132,3.405,0.481,4.458-0.983
					C99.076,322.703,99.19,322.205,98.988,321.835z"/>
				<path style="fill:#EBEF3C;" d="M103.003,325.523c-1.084-1.13-2.184-0.936-3.637-0.734c-1.336,0.186-2.628,0.508-3.947,0.775
					c-1.52,0.307-1.744,2.854,0.009,2.912c1.334,0.044,2.651,0.146,3.988,0.116c1.342-0.03,2.767,0.118,3.606-1.122
					C103.386,326.929,103.503,326.044,103.003,325.523z"/>
				<path style="fill:#EBEF3C;" d="M96.37,303.991c-1.016-0.474-2.051,0.684-1.637,1.662c0.701,1.654,1.426,3.299,2.118,4.959
					c0.813,1.949,3.862,1.099,3.572-0.996C100.087,307.193,98.565,305.015,96.37,303.991z"/>
				<path style="fill:#EBEF3C;" d="M104.448,306.297c-0.536-1.534-3.03-0.825-2.75,0.767c0.345,1.959,0.529,3.923,1.055,5.85
					c0.272,0.998,1.031,1.765,2.144,1.623c0.936-0.12,1.871-1.148,1.623-2.144C105.994,310.291,105.16,308.334,104.448,306.297z"/>
				<path style="fill:#EBEF3C;" d="M112.093,312.955c-0.573-1.067-2.415-1.361-2.866,0.022c-0.556,1.706-0.307,3.562-0.18,5.327
					c0.097,1.34,0.412,3.707,2.267,3.668c1.678-0.035,1.922-2.157,1.842-3.391C113.04,316.788,112.956,314.562,112.093,312.955z"/>
			</g>
		</g>
		<g>
			<path style="fill:#6FA843;" d="M286.353,334.168c1.692-4.039,3.869-8.083,7.447-10.607c3.578-2.524,8.878-3.063,12.184-0.192
				c2.704,2.348,3.783,6.562,7.125,7.848c2.6,1,5.597-0.294,7.565-2.266c1.968-1.972,3.205-4.535,4.745-6.857
				c5.13-7.732,14.03-12.829,23.294-13.341c2.987-0.165,6.101,0.152,8.698,1.637c2.597,1.485,4.563,4.332,4.344,7.316
				c-0.246,3.341-2.95,5.873-5.086,8.455c-2.135,2.581-3.845,6.358-1.981,9.142c1.861,2.781,6.091,2.63,9.123,1.213
				c3.032-1.416,5.659-3.761,8.914-4.541c7.227-1.732,14.203,5.621,14.471,13.048c0.268,7.427-4.243,14.205-9.468,19.489
				c-17.128,17.32-42.177,23.73-66.048,28.585c-4.961,1.009-10.015,1.987-15.055,1.502
				C272.145,392.246,280.044,349.228,286.353,334.168z"/>
			<path style="fill:#6FA843;" d="M304.009,408.728c0,0,65.28-35.52,85.92-17.76C410.569,408.728,325.609,422.168,304.009,408.728z"
				/>
			<g>
				<path style="fill:#3FBC56;" d="M407.572,296.96c-20.509,4.116-38.48,13.409-54.277,27.183
					c-15.329,13.366-27.6,30.709-34.334,49.943c-0.221,0.631,0.822,1.056,1.096,0.439c16.527-37.259,48.473-65.371,87.716-76.884
					C408.217,297.51,408.014,296.872,407.572,296.96z"/>
				<path style="fill:#EBEF3C;" d="M420.678,295.289c-0.962-1.818-2.757-1.712-4.608-1.492c-1.819,0.216-3.356,0.598-4.723,1.87
					c-0.515,0.48-0.28,1.598,0.479,1.69c1.588,0.193,3.017-0.076,4.6-0.17c1.671-0.098,3.028,0.159,4.18-1.241
					C420.768,295.748,420.798,295.516,420.678,295.289z"/>
				<path style="fill:#EBEF3C;" d="M413.516,299.281c-1.329-0.417-2.777-0.212-4.15-0.158c-1.325,0.051-2.611,0.105-3.742,0.865
					c-0.757,0.508-0.76,1.605,0.038,2.08c1.169,0.697,2.444,0.692,3.77,0.672c1.37-0.021,2.84,0.111,4.141-0.375
					C415.056,301.809,415.063,299.767,413.516,299.281z"/>
				<path style="fill:#EBEF3C;" d="M407.12,304.87c-0.906-1.103-2.609-0.952-3.9-1.094c-1.576-0.173-3.078-0.616-4.675-0.614
					c-1.045,0.001-1.483,1.306-0.792,2.015c1.368,1.405,3.155,1.884,5.057,2.109c1.518,0.18,3.658,0.258,4.472-1.318
					C407.487,305.573,407.387,305.195,407.12,304.87z"/>
				<path style="fill:#EBEF3C;" d="M398.044,307.64c-1.203-0.576-2.539-0.464-3.837-0.697c-1.252-0.226-2.549-0.763-3.83-0.628
					c-0.796,0.084-1.52,0.982-0.966,1.757c1.578,2.205,6.287,3.296,8.678,2.064C399.03,309.651,398.991,308.093,398.044,307.64z"/>
				<path style="fill:#EBEF3C;" d="M389.623,310.116c-1.572-0.612-3.566-0.901-5.25-0.848c-1.086,0.035-1.557,1.593-0.532,2.117
					c1.626,0.832,3.635,1.4,5.456,1.527c0.495,0.034,0.975-0.321,1.214-0.726c0.135-0.228,0.209-0.453,0.181-0.72
					C390.618,310.769,390.256,310.362,389.623,310.116z"/>
				<path style="fill:#EBEF3C;" d="M410.659,290.055c-1.269-0.05-2.643,0.858-3.652,1.564c-1.107,0.775-1.883,1.764-2.675,2.84
					c-0.693,0.941,0.717,2.242,1.632,1.574c0.906-0.662,1.908-1.201,2.858-1.799c0.939-0.591,2.133-0.95,2.888-1.767
					C412.579,291.529,411.883,290.103,410.659,290.055z"/>
				<path style="fill:#EBEF3C;" d="M403.368,290.704c-1.686-0.328-3.214,1.114-4.349,2.206c-1.154,1.109-2.268,2.565-2.692,4.127
					c-0.343,1.262,1.321,2.185,2.215,1.236c0.923-0.981,1.675-2.079,2.666-3.008c0.904-0.848,2.509-1.465,2.985-2.638
					C404.489,291.894,404.292,290.883,403.368,290.704z"/>
				<path style="fill:#EBEF3C;" d="M394.962,291.817c-1.601-0.666-3.105,1.169-3.906,2.296c-0.925,1.301-1.656,2.957-1.308,4.572
					c0.268,1.24,1.832,1.105,2.432,0.273c0.873-1.21,1.211-2.609,2.272-3.728C395.241,294.397,396.741,292.557,394.962,291.817z"/>
				<path style="fill:#EBEF3C;" d="M388.626,294.536c-1.656-0.893-3.69,1.351-4.601,2.495c-1.128,1.416-2.306,3.509-2.049,5.388
					c0.156,1.143,1.538,1.599,2.21,0.555c1.108-1.723,1.628-3.458,3.277-4.829c0.654-0.544,1.668-1.029,1.888-1.917
					C389.517,295.558,389.24,294.867,388.626,294.536z"/>
			</g>
			<path style="fill:#44C67B;" d="M418.729,340.088c0,0-84,1.92-121.92,64.32C296.809,404.408,395.689,411.608,418.729,340.088z"/>
			<path style="fill:#2C9B59;" d="M408.676,344.739c-9.484,3.176-18.717,7.87-27.803,12.052
				c-9.678,4.455-19.285,9.065-28.786,13.887c-18.92,9.602-37.981,19.554-55.774,31.134c-0.669,0.435-0.058,1.427,0.642,1.054
				c18.545-9.859,36.717-20.343,55.474-29.825c9.224-4.663,18.499-9.228,27.841-13.648c9.578-4.532,19.632-8.4,28.976-13.367
				C409.955,345.65,409.438,344.484,408.676,344.739z"/>
		</g>
	</g>
	<g>
		<path style="fill:#6CC4C4;" d="M224.295,149.331l24.017,0.198l-26.542,0.748l-83.234,254.125l-5.658-10.753
			c0,0-5.265,19.772,9.94,23.922l150.774,4.85c8.816,0.284,16.73-5.37,19.32-13.802l76.757-250.311
			c2.559-7.367-6.015-19.832-22.482-20.399L224.295,149.331z"/>
		<path style="fill:#2A777F;" d="M366.046,137.9l-139.773,3.94c-6.482,0.183-12.151,4.415-14.169,10.577l-77.712,237.267
			c-3.189,9.738,3.866,19.811,14.108,20.14l141.99,4.568c6.928,0.223,13.147-4.22,15.182-10.846l75.496-245.774
			C384.255,147.718,376.558,137.604,366.046,137.9z"/>
		<circle style="fill:#234B56;" cx="217.019" cy="398.588" r="10.32"/>
		<path style="fill:#234B56;" d="M316.621,154.279c-0.015,1.524-1.263,2.747-2.788,2.732c-1.524-0.015-2.747-1.263-2.732-2.788
			c0.015-1.524,1.263-2.747,2.788-2.732C315.413,151.507,316.636,152.755,316.621,154.279z"/>
		<path style="fill:#95F9F6;" d="M353.759,148.823l-14.652,0.413c-2.756,0.078-5.363,1.264-7.232,3.291l-4.801,5.208
			c-2.69,2.918-6.465,4.598-10.434,4.642l-50.485,0.563c-4.897,0.055-9.487-2.382-12.185-6.468l0,0
			c-1.95-2.952-5.286-4.687-8.823-4.587l-12.623,0.356c-5.622,0.159-10.539,3.829-12.29,9.174l-67.405,205.798
			c-2.766,8.447,3.353,17.183,12.237,17.469l123.157,3.962c6.009,0.193,11.403-3.66,13.168-9.407l65.483-213.177
			C369.553,157.339,362.877,148.566,353.759,148.823z"/>
		<path style="fill:#234B56;" d="M303.262,156.743l-34.317,0.457c-1.226,0.016-2.233-0.964-2.249-2.19l0,0
			c-0.016-1.226,0.964-2.233,2.19-2.249l34.317-0.457c1.226-0.016,2.233,0.964,2.249,2.19l0,0
			C305.469,155.72,304.488,156.727,303.262,156.743z"/>
	</g>
	<g>
		<g>
			<path style="fill:#FFFB5F;" d="M88.126,126.434h48.235c7.388,0,13.377,6.759,13.377,15.097v25.786
				c0,8.33-5.977,15.082-13.355,15.096l5.934,7.495l-14.145-7.493H88.126c-7.388,0-13.377-6.759-13.377-15.097v-25.786
				C74.749,133.194,80.738,126.434,88.126,126.434z"/>
			
				<rect x="82.951" y="143.001" transform="matrix(-1 -1.224647e-16 1.224647e-16 -1 222.7291 288.6462)" style="fill:#F28B0F;" width="56.828" height="2.645"/>
			
				<rect x="82.951" y="153.359" transform="matrix(-1 -1.224647e-16 1.224647e-16 -1 222.7291 309.3633)" style="fill:#F28B0F;" width="56.828" height="2.645"/>
			
				<rect x="82.951" y="163.24" transform="matrix(-1 -1.224647e-16 1.224647e-16 -1 222.7291 329.1254)" style="fill:#F28B0F;" width="56.828" height="2.645"/>
		</g>
		<g>
			
				<rect x="306.218" y="206.834" transform="matrix(-1 -1.224647e-16 1.224647e-16 -1 720.3267 454.4838)" style="fill:#FCC63D;" width="107.891" height="40.815"/>
			
				<rect x="303.818" y="203.834" transform="matrix(-1 -1.224647e-16 1.224647e-16 -1 715.5267 448.4838)" style="fill:#FFFB5F;" width="107.891" height="40.815"/>
			
				<rect x="315.821" y="216.543" transform="matrix(-1 -1.224647e-16 1.224647e-16 -1 679.5959 436.6454)" style="fill:#F28B0F;" width="47.954" height="3.559"/>
			
				<rect x="323.276" y="226.509" transform="matrix(-1 -1.224647e-16 1.224647e-16 -1 687.051 456.5783)" style="fill:#F28B0F;" width="40.499" height="3.559"/>
			<path style="fill:#F43D61;" d="M387.185,232.681c0.371,0.309,0.776,0.414,1.162,0.385c0.385,0.028,0.791-0.076,1.162-0.385
				c4.027-3.357,14.026-10.165,10.659-16.607c-2.499-4.78-8.148-3.929-11.821-1.07c-3.673-2.859-9.322-3.71-11.821,1.07
				C373.158,222.517,383.157,229.324,387.185,232.681z"/>
		</g>
	</g>
	<g>
		<path style="fill:#E53E7E;" d="M332.749,266.352c-7.123,0.001-12.895,5.773-12.896,12.896c0.001,7.123,5.773,12.895,12.896,12.896
			c7.123-0.001,12.895-5.773,12.896-12.896C345.644,272.125,339.872,266.353,332.749,266.352z M339.349,285.848
			c-1.695,1.692-4.017,2.733-6.6,2.734c-2.583-0.001-4.905-1.042-6.6-2.734c-1.692-1.695-2.733-4.017-2.734-6.6
			c0.001-2.583,1.042-4.905,2.734-6.6c1.695-1.692,4.017-2.733,6.6-2.734c2.583,0.001,4.905,1.042,6.6,2.734
			c1.692,1.695,2.733,4.017,2.734,6.6C342.081,281.831,341.04,284.154,339.349,285.848z"/>
		<polygon style="fill:#2C9B59;" points="138.991,294.308 131.713,294.308 131.713,287.03 121.789,287.03 121.789,294.308 
			114.511,294.308 114.511,304.233 121.789,304.233 121.789,311.51 131.713,311.51 131.713,304.233 138.991,304.233 		"/>
		<polygon style="fill:#2C9B59;" points="360.589,164.212 348.77,164.212 348.77,152.393 332.652,152.393 332.652,164.212 
			320.833,164.212 320.833,180.329 332.652,180.329 332.652,192.148 348.77,192.148 348.77,180.329 360.589,180.329 		"/>
		<path style="fill:#E53E7E;" d="M142.125,93.908c-4.375,0.001-7.919,3.545-7.92,7.92c0.001,4.375,3.545,7.919,7.92,7.92
			c4.375-0.001,7.919-3.545,7.92-7.92C150.044,97.454,146.499,93.909,142.125,93.908z M146.178,105.881
			c-1.041,1.039-2.467,1.678-4.053,1.679c-1.587-0.001-3.012-0.64-4.053-1.679c-1.039-1.041-1.678-2.467-1.679-4.053
			c0.001-1.587,0.64-3.013,1.679-4.053c1.041-1.039,2.467-1.678,4.053-1.679c1.586,0.001,3.012,0.64,4.053,1.679
			c1.039,1.041,1.678,2.467,1.679,4.053C147.856,103.414,147.217,104.841,146.178,105.881z"/>
	</g>
	<g>
		<g>
			<path style="fill:#FCC78D;" d="M153.851,266.771l-6.107-13.74c0,0,8.003-8.563,5.892-13.623
				c-2.111-5.061-4.7-10.366-2.512-13.225s-0.874-8.889-4.746-5.566c-3.872,3.323-2.018,10.061-3.716,11.965
				c-1.699,1.904-2.181,2.139-2.181,2.139s-9.294-6.81-10.914-13.066c-1.619-6.256-6.147-9.66-7.619-6.314
				c-1.472,3.346,0.147,9.602,3.94,14.439c0,0-6.45-3.183-7.834-8.956c-1.384-5.774-6.196-4.62-6.48-0.063c0,0-4.071-1-3.402,4.287
				c0,0-5.033-0.769-2.938,5.972s8.407,24.083,29.477,29.327c0,0,5.182,13.227,6.327,17.338c0.12,0.431,0.196,0.761,0.216,0.966
				C141.475,280.812,153.851,266.771,153.851,266.771z"/>
			<path style="fill:#F7896B;" d="M182.096,175.6c0,0-15.364,0.331-12.13,13.323c3.234,12.992,13.305,14.049,13.305,14.049
				L182.096,175.6z"/>
			<path style="fill:#69A7DA;" d="M269.169,267.648v3.44l-0.03,34.88v1.71l-0.02,16.7v1.79l-0.02,26.07v1.28l-0.03,31.78v2.8
				l-37.22-1.2l-30.96-0.99l-9.9-0.32l0.35-2.36l5.08-34.05l0.11-0.79l0.1-0.67l5.17-34.64l0.71-4.79l1.2-8.02l1.76-11.82l0.41-2.74
				l0.04-0.26l0.58-3.94l0.32-2.12l0.28-1.86l0.81-5.48l1.5-10.06l0.05-0.32c0,0,0.15-0.34,0.45-0.94c0.75-1.49,2.41-4.6,4.9-8.09
				c2.28-3.19,5.26-6.68,8.87-9.54c0.42-0.33,0.85-0.65,1.28-0.96c0.09-0.07,0.18-0.13,0.26-0.19c0.07-0.05,0.14-0.09,0.21-0.14
				c0.13-0.09,0.26-0.18,0.4-0.27c0.09-0.06,0.19-0.13,0.29-0.19c3.7-2.41,7.96-4.04,12.74-4.06c2.53-0.01,4.98,0.66,7.32,1.8
				c0.64,0.31,1.27,0.66,1.9,1.04c0.23,0.15,0.47,0.3,0.71,0.46c1.14,0.75,2.25,1.6,3.33,2.54c0.01-0.01,0.01-0.01,0.02,0.01
				c0.38,0.33,0.76,0.67,1.13,1.02c0.52,0.49,1.04,1,1.53,1.53c0.02,0,0.02,0.01,0.03,0.02c0.07,0.06,0.13,0.13,0.19,0.2
				c1.65,1.72,3.18,3.59,4.59,5.48c0.76,1.02,1.48,2.04,2.17,3.06C266.399,261.328,269.169,267.648,269.169,267.648z"/>
			<path style="fill:#FFFFFF;" d="M278.959,388.418l-0.32-0.01l-9.57-0.31l-37.22-1.2c-0.87-26.99,1.15-55.24,3.93-79.65
				c4.32-38.02,10.49-66.7,10.49-66.7c0.89,0.17,1.75,0.44,2.6,0.79c1.12,0.45,2.21,1.05,3.25,1.79c0.01-0.01,0.01-0.01,0.02,0.01
				c0.35,0.23,0.7,0.49,1.04,0.77c0.5,0.38,0.98,0.8,1.46,1.24c0,0.01,0.01,0.01,0.02,0.01c0.05,0.06,0.1,0.1,0.15,0.15
				c1.72,1.63,3.32,3.58,4.8,5.72c0.75,1.09,1.48,2.24,2.17,3.42c3.12,5.34,5.58,11.4,7.39,16.64c2.54,7.38,3.8,13.16,3.8,13.16
				c-0.24,3.93,0.14,14.02,0.81,26.52c0.02,0.32,0.03,0.64,0.05,0.96c0.02,0.28,0.03,0.57,0.04,0.86c0.13,2.19,0.26,4.46,0.39,6.77
				c0.02,0.32,0.04,0.63,0.06,0.94c0.02,0.33,0.04,0.66,0.06,0.99c0.6,10.29,1.33,21.39,2.03,31.64c0.24,3.46,0.48,6.82,0.7,10.02
				C277.929,374.608,278.639,384.128,278.959,388.418z"/>
			<path style="fill:#FFFFFF;" d="M135.143,277.87l21.417-18.153l16.661,26.803c0,0,43.994-44.576,54.828-48.071
				c10.834-3.495,18.74-1.979,24.119,0.234c4.866,2.001,44.047,50.294,55.591,74.986c1.917,4.101,1.297,8.929-1.522,12.471
				c-5.994,7.53-19.466,19.804-29.976,26.902l-33.823-1.948l36.16-34.931l-24.263-22.556l-5.602-53.517l-24.676,1.561
				l-13.832,52.788c0,0-34.509,31.707-42.058,30.554C159.444,323.66,135.143,277.87,135.143,277.87z"/>
			<path style="fill:#FFFFFF;" d="M225.139,241.298c0,0-0.02,0.1-0.06,0.29c-0.03,0.13-0.07,0.32-0.12,0.55
				c-1.03,4.84-6.37,30.1-11.79,59.46c-0.1,0.5-0.19,1.01-0.28,1.51c-0.1,0.59-0.21,1.18-0.32,1.78c-0.02,0.13-0.05,0.26-0.07,0.39
				c-2.8,15.31-5.57,31.54-7.73,46.43c-0.26,1.79-0.51,3.57-0.76,5.32c-1.41,10.24-2.49,19.67-3.03,27.54
				c-0.04,0.45-0.07,0.9-0.09,1.34l-9.9-0.32l-9.34-0.3c-1.02-0.94-1.99-2.04-2.87-3.31l0.68-3.68l5.55-30.2l0.09-0.47l0.05-0.31
				l3.82-20.74l2.98-16.19l0.03-0.19l0.38-2.08l2.3-12.48l1.71-9.31l1.59-8.65l0.58-3.15c0,0,4.22-6.61,9.53-13.99
				c0.06-0.08,0.11-0.16,0.18-0.24c0.14-0.21,0.3-0.43,0.46-0.64c0.01-0.02,0.02-0.03,0.03-0.05c2.08-2.87,4.31-5.81,6.49-8.5
				c3.17-3.9,6.26-7.25,8.72-9.04c0.23-0.17,0.45-0.32,0.66-0.45C224.789,241.498,224.969,241.388,225.139,241.298z"/>
			<path style="fill:#7EA4C4;" d="M196.207,286.526c-1.532,6.72-2.836,13.507-4.129,20.277c-1.223,6.407-2.947,13.027-3.281,19.552
				c-0.015,0.286,0.396,0.309,0.478,0.061c2.088-6.314,2.885-13.25,4.087-19.779c1.22-6.633,2.43-13.287,3.416-19.958
				C196.831,286.312,196.293,286.148,196.207,286.526z"/>
			<path style="fill:#D4E6F4;" d="M247.542,233.117c5.993,0.778,11.012,27.708,11.012,27.708l-11.822,6.366l9.497,10.652
				l-20.45,29.803c-0.063-18.242,9.973-66.327,9.973-66.327s-14.838-2.874-20.404,1.872c0,0-13.076,63.026-13.582,65.661
				l-8.323-32.722l10.412-9.5l-6.648-7.505C207.208,259.128,214.69,228.852,247.542,233.117z"/>
			<path style="fill:#7EA4C4;" d="M259.217,260.509c-2.089-9.144-5.027-18.284-9.419-26.601c-0.126-0.239-0.549-0.066-0.443,0.191
				c3.575,8.665,6.732,17.342,8.764,26.512c-0.85,0.286-1.65,0.785-2.428,1.195c-0.851,0.449-1.757,0.901-2.482,1.549
				c-0.482,0.287-0.923,0.66-1.407,0.942c-0.667,0.388-1.385,0.727-2.097,1.025c-0.274,0.115-0.174,0.535,0.13,0.457
				c1.074-0.275,2.417-0.776,3.358-1.561c1.053-0.178,2.018-0.708,2.952-1.209c1.068-0.572,2.298-1.078,3.117-1.991
				C259.43,260.832,259.367,260.627,259.217,260.509z"/>
			<path style="fill:#7EA4C4;" d="M256.46,277.95c-3.603-4.917-7.607-9.484-12.027-13.683c-0.264-0.251-0.64,0.136-0.394,0.401
				c4.027,4.35,7.786,8.917,11.275,13.709c-1.996,2.315-3.606,5.033-5.285,7.575c-1.916,2.9-4.038,5.724-5.707,8.775
				c-0.151,0.276,0.235,0.599,0.453,0.344c2.082-2.436,3.826-5.17,5.689-7.774c2.009-2.807,4.315-5.587,5.906-8.656
				C256.565,278.479,256.657,278.219,256.46,277.95z"/>
			<path style="fill:#7EA4C4;" d="M216.889,242.159c-4.495,4.82-8.087,10.523-9.744,16.959c-0.075,0.292,0.089,0.493,0.302,0.569
				c0.009,0.021,0.013,0.043,0.028,0.064c0.854,1.281,2.101,2.305,3.089,3.488c1.052,1.26,1.86,2.885,3.061,3.993
				c0.311,0.287,0.85-0.001,0.722-0.429c-0.444-1.493-1.666-2.818-2.642-4.007c-1.02-1.243-2.159-2.689-3.567-3.514
				c2.024-6.158,4.814-11.852,9.117-16.764C217.471,242.272,217.116,241.916,216.889,242.159z"/>
			<path style="fill:#7EA4C4;" d="M211.173,301.663c-1.349-4.167-3.092-8.171-4.297-12.395c-1.205-4.224-1.863-8.536-2.886-12.797
				c-0.092-0.382-0.701-0.296-0.686,0.099c0.168,4.39,1.278,8.804,2.479,13.01c1.195,4.188,2.571,8.566,4.764,12.354
				C210.739,302.266,211.295,302.039,211.173,301.663z"/>
			<path style="fill:#FFFFFF;" d="M182.471,347.452l18.949,1.264l-3.754,27.838c-0.665,4.933-5.69,8.012-10.387,6.366l-3.721-1.304
				c-3.587-1.257-5.761-4.902-5.161-8.656L182.471,347.452z"/>
			<path style="fill:#FFFFFF;" d="M276.261,353.041l-37.781-2.166l-0.487,24.207c-0.115,5.727,4.412,10.475,10.138,10.632
				l18.887,0.517c6.138,0.168,11.091-4.977,10.689-11.104L276.261,353.041z"/>
			<g>
				<g>
					<path style="fill:#5879A5;" d="M253.438,235.384c-3.647-3.966-8.698-6.702-14.475-7.371l-0.984-0.115
						c-1.24-0.144-2.471-0.188-3.686-0.136c-9.986,0.42-18.778,7.227-21.504,17.126l-9.245,33.6l3.857,1.061l9.245-33.601
						c2.254-8.201,9.549-13.843,17.815-14.19c1.006-0.042,2.027-0.006,3.056,0.113l0.984,0.114c4.8,0.558,8.963,2.816,11.993,6.106
						c3.028,3.292,4.903,7.605,5.099,12.261c0.045,1.08-0.001,2.18-0.143,3.292l-7.72,39.783l3.927,0.762l7.748-39.93l0.008-0.062
						c0.175-1.351,0.232-2.693,0.176-4.012C259.353,244.557,257.087,239.349,253.438,235.384z"/>
					<polygon style="fill:#565656;" points="207.401,279.549 207.401,279.549 207.401,279.549 					"/>
				</g>
				<path style="fill:#7AA2CE;" d="M202.413,312.388l5.916,1.261l6.046-25.806l0-0.003c0.176-0.753,0.243-1.512,0.212-2.254
					c-0.077-1.817-0.743-3.529-1.851-4.903c-1.105-1.374-2.667-2.416-4.507-2.87l-4.087-1.01c-0.788-0.195-1.584-0.271-2.362-0.238
					c-1.773,0.075-3.45,0.712-4.81,1.776c-1.36,1.063-2.409,2.567-2.903,4.352l-7.353,26.489l6.222,1.434l0.496-2.251l-2.148-0.495
					l6.637-24.107c0.262-0.941,0.801-1.712,1.514-2.271c0.713-0.558,1.593-0.891,2.512-0.929c0.404-0.017,0.817,0.022,1.234,0.125
					l4.087,1.01c0.97,0.241,1.77,0.777,2.352,1.497c0.581,0.721,0.929,1.619,0.968,2.561c0.016,0.386-0.019,0.78-0.111,1.179
					l0.001-0.002l-5.416,23.278l-2.082-0.444L202.413,312.388L202.413,312.388z"/>
				<path style="fill:#7AA2CE;" d="M256.972,299.808c0.196,4.668-3.429,8.612-8.097,8.808c-4.668,0.196-8.612-3.429-8.808-8.097
					c-0.196-4.668,3.429-8.612,8.097-8.808C252.832,291.515,256.776,295.14,256.972,299.808z"/>
				<path style="fill:#5879A5;" d="M254.814,299.899c0.146,3.476-2.553,6.413-6.03,6.559c-3.476,0.146-6.413-2.553-6.559-6.03
					c-0.146-3.476,2.554-6.413,6.03-6.559C251.731,293.723,254.668,296.423,254.814,299.899z"/>
				<path style="fill:#B0B6C0;" d="M251.577,300.035c0.071,1.689-1.24,3.115-2.929,3.186c-1.688,0.071-3.115-1.24-3.186-2.929
					c-0.071-1.689,1.24-3.115,2.929-3.186C250.08,297.035,251.506,298.346,251.577,300.035z"/>
				<path style="fill:#5879A5;" d="M193.149,311.986L193.149,311.986c-0.767-0.21-1.219-1.001-1.009-1.769l0.522-1.912
					c0.21-0.767,1.001-1.219,1.769-1.01l0,0c0.767,0.21,1.219,1.001,1.01,1.769l-0.522,1.912
					C194.708,311.743,193.916,312.195,193.149,311.986z"/>
				<path style="fill:#5879A5;" d="M201.666,313.073L201.666,313.073c-0.785-0.129-1.316-0.87-1.187-1.655l0.322-1.956
					c0.129-0.785,0.87-1.316,1.654-1.187l0,0c0.785,0.129,1.316,0.87,1.187,1.655l-0.322,1.956
					C203.191,312.67,202.451,313.202,201.666,313.073z"/>
			</g>
			<path style="fill:#FCC78D;" d="M217.396,223.225c0,0,10.017,6.577,7.707,22.036c0,0-1.233,15.829,1.552,25.576l19.005-29.337
				c0,0,3.414-17.968,10.32-24.741L217.396,223.225z"/>
			<path style="fill:#46120D;" d="M262.51,100.176c0,0,5.724-33.426,46.626-18.989c40.902,14.437,19.598,58.153-4.175,59.362
				C281.188,141.759,262.51,100.176,262.51,100.176z"/>
			<path style="fill:#46120D;" d="M181.882,172.838c0,0-25.098-10.684-22.351-34.058c2.747-23.375,34.523-33.147,34.523-33.147
				s53.577-30.443,96.469,1.654s13.688,73.576,0.275,83.167C277.383,200.044,181.882,172.838,181.882,172.838z"/>
			<path style="fill:#FCC78D;" d="M177.936,134.278c0,0-7.538,34.849,1.626,55.098c0,0-16.024,18.926,6.166,32.461
				c22.19,13.536,87.455,3.007,103.521-20.238c0,0,28.84-4.041,26.128-21.348c-2.712-17.307-26.926-7.821-29.969,9.07
				c0,0,10.114-40.584,8.831-56.797C292.955,116.311,189.202,86.145,177.936,134.278z"/>
			<path style="fill:#46120D;" d="M171.016,142.492l18.904-18.898c0,0,26.552,46.339,88.857,44.063l6.63,21.665
				c0,0,12.463-22.92,13.28-32.993c0.818-10.073,5.35-31.99-5.74-39.297c-11.09-7.308-51.667-18.141-66.814-15.408
				c-15.147,2.733-43.257,5.701-48.758,16.089C171.875,128.099,171.016,142.492,171.016,142.492z"/>
			<path style="fill:#C16046;" d="M307.736,179.371c-3.456,0.538-6.452,1.853-9.088,4.184c-2.345,2.073-4.942,5.278-5.353,8.478
				c-0.083,0.649,0.76,1.132,1.138,0.468c1.518-2.665,2.527-5.167,4.739-7.364c0.016,0.023,0.028,0.048,0.049,0.069
				c0.591,0.588,1.27,1.064,1.802,1.715c0.475,0.581,0.768,1.493,1.441,1.866c0.239,0.133,0.553,0.009,0.624-0.26
				c0.23-0.881-0.556-1.822-1.103-2.436c-0.581-0.652-1.336-1.28-2.188-1.544c2.308-2.057,5.178-3.626,8.153-4.425
				C308.448,179.988,308.219,179.296,307.736,179.371z"/>
			<path style="fill:#C16046;" d="M307.07,171.031c-7.531-1.663-15.619,4.817-18.441,11.335c-0.131,0.302,0.284,0.561,0.455,0.261
				c1.884-3.315,4.542-6.092,7.851-8.024c3.236-1.889,6.561-2.3,10.139-3.083C307.318,171.468,307.309,171.084,307.07,171.031z"/>
			<path style="fill:#F7896B;" d="M253.679,221.838c-0.51,0.09-1.02,0.2-1.53,0.31c-4.66,1.02-9.21,2.72-13.93,3.59
				c-5.54,1.02-11.1,1.11-16.67,1.8c-0.01,0-0.02,0.01-0.02,0.01c-0.09,0.01-0.14,0.06-0.16,0.12c-0.04,0.11,0.03,0.26,0.19,0.27
				c0.08,0.01,0.16,0.02,0.25,0.03c0.11,0,0.22,0.01,0.33,0.02c-0.01,0.08,0,0.17,0.08,0.24c0.77,0.75,1.62,1.44,2.53,2.03
				c1.57,1.05,3.31,1.82,5.13,2.25c1.92,0.44,3.92,0.49,5.89,0.04c0.7-0.16,1.39-0.38,2.06-0.64c1.68-0.63,3.26-1.53,4.76-2.5
				c0.24-0.15,0.48-0.31,0.72-0.47c2.48-1.61,5.06-3.3,7.38-5.09c0.04-0.04,0.07-0.08,0.1-0.13c0.23-0.09,0.46-0.18,0.69-0.28
				c0.83-0.34,1.64-0.71,2.4-1.13c0.07-0.04,0.1-0.09,0.11-0.14C254.049,221.998,253.879,221.798,253.679,221.838z"/>
			<path style="fill:#C16046;" d="M179.705,189.531c-4.192-13.873-5.107-27.941-3.625-42.316c0.03-0.286-0.451-0.347-0.505-0.064
				c-1.814,9.576-1.77,19.56-0.19,29.25c-4.579,0.914-7.402,6.644-6.003,10.94c0.073,0.224,0.409,0.182,0.412-0.059
				c0.036-2.333,0.297-4.417,1.631-6.407c1.082-1.615,2.558-2.516,4.124-3.514c0.734,4.218,1.751,8.377,3.041,12.416
				c-2.974,2.445-4.275,7.412-4.697,11.001c-0.51,4.335,0.305,8.341,2.086,12.303c0.087,0.193,0.422,0.051,0.343-0.148
				c-1.559-3.899-1.948-8.474-1.192-12.619c0.356-1.95,0.945-3.913,1.753-5.724c0.674-1.512,1.662-2.859,2.322-4.366
				C179.527,190.193,179.826,189.932,179.705,189.531z"/>
			<path style="fill:#C16046;" d="M223.133,230.129c-0.139-0.201-0.413-0.025-0.319,0.19c1.873,4.306,2.452,8.397,2.421,13.06
				c-0.002,0.298,0.447,0.357,0.521,0.066C226.898,238.938,225.747,233.914,223.133,230.129z"/>
			<path style="fill:#898989;" d="M304.188,305.293c-3.57-5.666-7.349-11.214-11.165-16.716
				c-7.604-10.965-15.347-22.125-24.201-32.129c-0.201-0.227-0.6,0.08-0.422,0.331c7.461,10.517,15.507,20.601,22.869,31.198
				c3.592,5.17,7.112,10.39,10.544,15.668c1.634,2.513,3.294,5.043,4.548,7.773c1.364,2.97,1.783,5.84,2.263,9.029
				c0.049,0.325,0.576,0.3,0.637-0.005C310.314,315.178,306.866,309.544,304.188,305.293z"/>
			<path style="fill:#7EA4C4;" d="M296.369,312.508c-1.28-0.68-2.66-1.09-4.08-1.29c0.17-0.02,0.31-0.18,0.18-0.35
				c-3.8-4.88-9.66,0.18-12.45,3.51c-0.12,0.09-0.24,0.17-0.36,0.25c-0.06,0.02-0.12,0.04-0.18,0.09c-0.35,0.25-0.69,0.52-1.03,0.8
				c-0.93-1.42-2.38-2.51-3.59-3.68c-0.36-0.35-0.72-0.7-1.08-1.07c-1.04-1.02-2.07-2.07-3.08-3.13c-0.52-0.55-1.04-1.11-1.56-1.67
				c-2.25-2.43-4.46-4.92-6.56-7.48c-0.19-0.24-0.61,0.09-0.43,0.35c1.76,2.47,3.56,4.86,5.51,7.15c0.48,0.57,0.97,1.13,1.48,1.69
				c0.14,0.16,0.28,0.31,0.42,0.47c1.4,1.53,2.83,3,4.31,4.44c0.04,0.04,0.09,0.08,0.13,0.12c1.21,1.16,2.39,2.5,3.89,3.27
				c-1.26,1.05-2.45,2.21-3.63,3.38c-1.18,1.17-2.33,2.35-3.51,3.47c-0.54,0.52-1.09,1.04-1.63,1.55c-2.66,2.54-5.31,5.07-7.97,7.6
				c-6.27,5.99-12.63,11.92-18.63,18.17c-0.26,0.27,0,0.62,0.29,0.59c0.07-0.01,0.14-0.03,0.21-0.09
				c6.42-5.6,12.53-11.55,18.7-17.42c2.47-2.35,4.93-4.7,7.4-7.06c0.61-0.58,1.23-1.16,1.84-1.75c1.1-1.05,2.26-2.08,3.42-3.13
				c2.03-1.84,4.05-3.72,5.72-5.79c0.09-0.11,0.12-0.24,0.11-0.37c4.99-3.38,10.22-3.43,15.95-2.1
				C296.459,313.098,296.669,312.658,296.369,312.508z M281.779,313.298c2.84-2.85,6.51-5.16,10.3-2.12
				c0.03,0.02,0.05,0.01,0.08,0.02C288.649,310.748,284.899,311.618,281.779,313.298z"/>
			<path style="fill:#7EA4C4;" d="M275.579,352.926c-1.895-0.796-4.08-0.572-6.114-0.669c-2.482-0.119-4.965-0.244-7.448-0.352
				c-5.134-0.225-10.255-0.317-15.389-0.425c-0.331-0.007-0.316,0.482,0.004,0.508c4.968,0.397,9.92,0.816,14.898,1.103
				c2.317,0.133,4.634,0.254,6.952,0.377c2.252,0.12,4.857,0.685,7.029,0.014C275.736,353.412,275.833,353.033,275.579,352.926z"/>
			<path style="fill:#7EA4C4;" d="M268.861,385.247c-5.221-0.353-10.496-0.251-15.727-0.332c-4.057-0.063-10.395,0.767-12.761-3.402
				c-1.174-2.068-1.121-4.636-1.196-6.94c-0.075-2.282-0.123-4.566-0.165-6.849c-0.095-5.218-0.089-10.433-0.041-15.652
				c0.003-0.376-0.554-0.363-0.579,0.005c-0.403,6.022-0.583,12.068-0.528,18.104c0.036,3.926-0.608,9.312,1.906,12.689
				c2.396,3.219,6.804,3.2,10.425,3.263c6.208,0.108,12.469,0.443,18.674,0.223C269.59,386.331,269.567,385.295,268.861,385.247z"/>
			<path style="fill:#898989;" d="M280.009,388.458l-1.05-0.04l-0.32-0.01c-0.16-1.39-0.16-2.82-0.27-4.19
				c-0.18-2.3-0.35-4.6-0.51-6.9c-0.05-0.73-0.1-1.46-0.15-2.19c-0.03-0.46-0.06-0.92-0.09-1.38c-0.23-3.57-0.42-7.15-0.52-10.72
				c0-0.03,0-0.06,0.01-0.08c0.06-0.24,0.44-0.2,0.48,0.07c0.62,4.75,1.06,9.53,1.48,14.29c0.21,2.47,0.41,4.93,0.6,7.4
				C279.769,385.948,279.959,387.208,280.009,388.458z"/>
			<path style="fill:#7EA4C4;" d="M200.558,348.424c-0.036-0.032-0.066-0.072-0.113-0.087c-2.571-0.847-5.685-0.613-8.377-0.753
				c-3.082-0.16-6.162-0.232-9.246-0.336c-0.414-0.014-0.392,0.595,0.005,0.633c3.084,0.297,6.161,0.625,9.25,0.866
				c2.596,0.202,5.516,0.776,8.106,0.358c-0.908,4.213-1.162,8.624-1.625,12.898c-0.51,4.714-1.095,9.411-1.117,14.16
				c-0.001,0.272,0.424,0.336,0.483,0.061c0.94-4.379,1.375-8.809,1.859-13.255c0.509-4.671,1.305-9.458,1.276-14.161
				C201.058,348.527,200.786,348.382,200.558,348.424z"/>
			<path style="fill:#7EA4C4;" d="M176.249,288.908c-0.82-0.99-1.71-1.91-2.47-2.71c-0.02-0.06-0.05-0.11-0.07-0.17
				c-1.8-4.43-4.77-8.67-7.19-12.65c-2.82-4.64-5.6-9.64-9.17-13.77c-0.09-0.4-0.49-0.7-0.89-0.39c-1.47,1.15-2.95,2.31-4.42,3.48
				c-4.27,3.43-8.47,6.98-12.38,10.79c-0.56,0.54-1.11,1.09-1.65,1.64c-0.11,0.12-0.1,0.25-0.03,0.34c0.08,0.13,0.28,0.19,0.44,0.06
				c0.51-0.41,1.01-0.82,1.52-1.23c4.24-3.43,8.4-6.96,12.64-10.39c1.39-1.13,2.8-2.25,4.21-3.35c2.52,4.83,5.85,9.34,8.67,13.99
				c2.57,4.24,4.79,9.11,7.85,13.05c0.66,1.6,1.27,3.24,1.76,4.91c0.15,0.51,0.29,1.04,0.42,1.56c0.57,2.34,0.59,4.77,1.21,7.08
				c0.07,0.28,0.53,0.3,0.58,0c0.18-1.14,0.18-2.34,0.06-3.55C180.379,295.008,178.569,291.688,176.249,288.908z M177.249,296.858
				c-0.29-2.03-0.89-4.09-1.64-6.01c-0.34-0.91-0.72-1.78-1.11-2.61c-0.05-0.18-0.13-0.37-0.19-0.56c0.51,0.69,1.16,1.3,1.7,1.96
				c0.03,0.03,0.05,0.07,0.08,0.1C177.709,291.788,179.029,294.618,177.249,296.858z"/>
			<path style="fill:#7EA4C4;" d="M174.502,322.591c-3.83,4.664-10.121-0.661-13.013-3.626c-3.475-3.565-6.467-7.509-9.075-11.745
				c-0.176-0.286-0.598-0.03-0.446,0.266c2.923,5.656,14.971,25.079,22.763,15.332C174.859,322.656,174.634,322.43,174.502,322.591z
				"/>
			<path style="fill:#C16046;" d="M132.73,249c-1.537-2.491-5.123-3.582-7.658-4.729c-3.151-1.426-6.187-2.996-8.317-5.756
				c1.767-1.631,3.581-3.205,5.527-4.637c2.666-1.963,5.538-3.497,8.35-5.221c0.444-0.272,0.049-0.873-0.403-0.676
				c-3.083,1.348-6.104,3.248-8.9,5.442c-0.036-0.151-0.136-0.287-0.332-0.348c-5.782-1.775-4.071-9.982-9.163-12.604
				c-0.263-0.136-0.461,0.227-0.225,0.393c4.532,3.201,2.962,11.653,9.011,13.134c-1.498,1.22-2.931,2.514-4.257,3.857
				c-0.017-0.037-0.033-0.075-0.063-0.11c-2.276-2.607-3.647-5.342-4.749-8.608c-0.609-1.806-1.453-3.406-3.27-4.175
				c-0.252-0.107-0.473,0.248-0.217,0.379c2.585,1.318,2.696,4.795,3.76,7.208c0.952,2.158,2.274,4.081,3.901,5.781
				c0.028,0.029,0.058,0.044,0.087,0.061c0.002,0.004,0.004,0.007,0.006,0.011c-0.047,0.049-0.09,0.1-0.137,0.15
				c0.133,0.061,0.236,0.157,0.35,0.24c1.482,2.602,3.887,4.3,6.567,5.671c1.748,0.894,3.583,1.604,5.337,2.486
				c1.527,0.768,2.887,1.862,4.474,2.478C132.649,249.522,132.854,249.2,132.73,249z"/>
			<path style="fill:#C16046;" d="M153.702,238.578c-0.087-0.262-0.464-0.151-0.41,0.117c0.763,3.741-0.637,7.36-3.014,10.229
				c-1.927,2.325-4.508,3.894-6.549,6.075c-0.261,0.279,0.073,0.678,0.402,0.511C150.02,252.522,156,245.532,153.702,238.578z"/>
			<path style="fill:#C16046;" d="M146.612,220.154c-2.092,1.303-2.691,3.536-2.99,5.863c-0.575,4.472-2.472,7.683-4.896,11.399
				c-2.764,4.237-5.852,11.281-0.958,15.259c0.262,0.213,0.572-0.111,0.364-0.37c-4.529-5.623-0.176-11.568,2.991-16.558
				c1.276-2.011,2.478-4.111,3.035-6.447c0.704-2.958,0.107-6.495,2.785-8.592C147.258,220.46,146.976,219.927,146.612,220.154z"/>
			<path style="fill:#C16046;" d="M136.308,230.844c-1.453-1.878-3.091-3.576-4.38-5.591c-1.471-2.302-2.457-4.775-3.454-7.303
				c-0.903-2.291-2.988-5.6-5.848-3.803c-0.218,0.137-0.076,0.517,0.184,0.428c4.381-1.503,5.551,6.311,7.061,9.134
				c1.485,2.775,3.44,5.688,5.979,7.6C136.115,231.506,136.509,231.105,136.308,230.844z"/>
			<path style="fill:#C16046;" d="M137.122,265.814c-0.724-1.864-1.392-3.773-2.337-5.537c-0.2-0.374-0.767-0.106-0.667,0.288
				c0.556,2.186,1.48,4.291,2.304,6.388c0.723,1.84,1.342,3.822,2.454,5.466c0.152,0.224,0.45,0.07,0.413-0.178
				C138.959,270.031,137.927,267.889,137.122,265.814z"/>
			<path style="fill:#4C7FB3;" d="M238.445,252.304c-4.178,5.403-7.809,11.291-11.509,17.044c-0.449-3.667-1.01-7.31-1.28-11.003
				c-0.302-4.126-0.318-8.243-0.501-12.369c-0.016-0.354-0.508-0.336-0.541,0.005c-0.764,8.038-0.237,16.895,1.465,24.791
				c-0.057,0.472,0.678,0.801,1.002,0.307c3.987-6.082,8.222-12.132,11.687-18.529C238.874,252.354,238.592,252.113,238.445,252.304
				z"/>
			<path style="fill:#7EA4C4;" d="M219.525,269.213c-2.851,13.585-5.398,27.233-7.942,40.878c-1.242,6.664-2.476,13.33-3.728,19.992
				c-1.309,6.964-2.944,13.949-3.897,20.971c-0.095,0.699,0.92,1.02,1.093,0.292c1.6-6.734,2.563-13.674,3.815-20.481
				c1.256-6.83,2.534-13.656,3.801-20.484c2.537-13.664,5.071-27.332,7.3-41.049C220.014,269.045,219.586,268.921,219.525,269.213z"
				/>
			<path style="fill:#7EA4C4;" d="M203.678,357.204c-0.892,4.747-1.709,9.473-2.323,14.266c-0.571,4.46-1.4,9.106-1.225,13.604
				c0.016,0.403,0.631,0.511,0.725,0.092c0.989-4.4,1.143-9.071,1.665-13.549c0.558-4.781,1.08-9.572,1.673-14.348
				C204.23,356.978,203.733,356.915,203.678,357.204z"/>
			<path style="fill:#7EA4C4;" d="M236.469,296.324c-1.738,8.545-2.882,17.193-3.767,25.866c-0.449,4.396-0.818,8.8-1.116,13.21
				c-0.306,4.534-0.793,9.185-0.534,13.729c0.024,0.419,0.719,0.564,0.779,0.099c1.08-8.446,1.046-17.093,1.875-25.581
				c0.887-9.084,2.135-18.127,3.307-27.177C237.057,296.121,236.543,295.96,236.469,296.324z"/>
			<path style="fill:#A03737;" d="M292.726,122.537c-2.638-2.953-5.32-5.945-8.179-8.682c-0.546-0.523-1.533,0.181-1.074,0.843
				c1.36,1.961,2.82,3.866,4.312,5.746c-1.836-0.614-3.713-1.101-5.641-1.436c-0.901-0.156-1.908,0.591-1.568,1.595
				c0.547,1.617,0.091,3.563,1,4.979c0.186,0.29,0.643,0.473,0.951,0.241c1.201-0.904,1.304-2.424,1.054-3.889
				c2.623,0.609,5.155,1.466,7.616,2.618C292.508,125.165,293.715,123.645,292.726,122.537z"/>
			<path style="fill:#A03737;" d="M277.501,125.023c-0.231-1.246-0.751-2.338-1.257-3.491c-0.327-0.745-1.647-0.188-1.323,0.571
				c0.494,1.158,0.935,2.285,1.685,3.306C276.94,125.863,277.605,125.582,277.501,125.023z"/>
			<path style="fill:#A03737;" d="M269.46,122.676c-16.114,0.315-32.144,0.736-48.243-0.486c-0.589-0.045-0.723,0.949-0.132,1.042
				c15.943,2.485,32.307,3.694,48.396,1.827C270.967,124.887,271.028,122.646,269.46,122.676z"/>
			<path style="fill:#A03737;" d="M182.065,115.755c-2.068,0.28-3.62,2.045-4.663,3.738c-0.529,0.859,0.796,1.592,1.346,0.772
				c1.002-1.493,2.478-2.317,3.723-3.553C182.787,116.398,182.567,115.687,182.065,115.755z"/>
		</g>
		<path style="fill:#C16046;" d="M218.556,197.328c-1.367-0.694-3.016-1.376-4.557-1.493c-0.761-0.058-0.988,0.913-0.564,1.395
			c0.935,1.06,2.448,1.951,3.707,2.565C218.777,200.591,220.194,198.16,218.556,197.328z"/>
		<path style="fill:#46120D;" d="M199.774,182.689c-0.06-1.449-0.211-2.747-1.546-3.569c-0.499-0.308-1.167-0.278-1.663,0.014
			c-1.354,0.797-1.477,2.162-1.564,3.596c-0.093,1.53-0.258,2.835,0.404,4.263c0.706,1.523,3.216,1.414,3.924-0.033
			C200.009,185.57,199.836,184.192,199.774,182.689z"/>
		<path style="fill:#46120D;" d="M242.252,183.1c-0.06-1.449-0.211-2.747-1.546-3.569c-0.499-0.308-1.167-0.278-1.663,0.014
			c-1.354,0.797-1.477,2.162-1.564,3.596c-0.093,1.53-0.258,2.835,0.404,4.263c0.706,1.522,3.216,1.414,3.924-0.033
			C242.487,185.981,242.314,184.604,242.252,183.1z"/>
		<path style="fill:#46120D;" d="M200.266,162.829c-1.382-1.048-3.773-0.067-5.171,0.576c-1.804,0.83-2.94,2.042-4.087,3.609
			c-0.397,0.542,0.414,1.35,0.95,0.934c1.261-0.98,2.899-1.737,4.416-2.217c1.378-0.436,3.014-0.24,4.125-1.212
			C201.078,164.01,200.771,163.212,200.266,162.829z"/>
		<path style="fill:#46120D;" d="M236.142,163.176c1.402-1.021,3.773,0.006,5.158,0.676c1.787,0.865,2.9,2.098,4.016,3.688
			c0.386,0.55-0.44,1.341-0.968,0.915c-1.242-1.004-2.865-1.793-4.372-2.302c-1.369-0.463-3.008-0.298-4.101-1.292
			C235.308,164.342,235.63,163.549,236.142,163.176z"/>
		<g>
			<path style="fill:#A01A2D;" d="M242.118,205.318c0,0-1.774,2.432-4.392,4.829c-3.307,3.034-7.973,5.997-12.088,3.924
				c-1.597-0.807-3.112-2.36-4.437-4.969C221.202,209.103,234.416,207.059,242.118,205.318z"/>
			<path style="fill:#F43D61;" d="M237.726,210.148c-3.307,3.034-7.973,5.997-12.088,3.924c1.088-2.046,2.87-3.587,5.246-4.335
				C232.907,209.103,235.618,209.174,237.726,210.148z"/>
		</g>
	</g>
</g>
</svg>
